<svg height="464pt" viewBox="-88 0 464 464" width="464pt" xmlns="http://www.w3.org/2000/svg"><path d="m165.769531 200-21.761719-27.191406-21.761718 27.191406 21.761718 27.191406zm-29.761719-8h16v16h-16zm0 0"/><path d="m216.007812 45.089844v55.046875c16.0625 17.824219 29.488282 41.457031 39.175782 68.992187-3.449219-49.59375-17.953125-93.425781-39.175782-124.039062zm0 0"/><path d="m152.71875 394.601562-8.71875 8.71875-8.71875-8.71875c-3.769531-3.761718-10.65625-3.082031-13.625 1.34375l-7.359375 11.046876 8.046875 8.046874c5.703125 5.703126 13.59375 8.96875 21.65625 8.96875s15.953125-3.265624 21.65625-8.96875l8.046875-8.046874-7.359375-11.039063c-2.960938-4.449219-9.855469-5.113281-13.625-1.351563zm0 0"/><path d="m283.585938 202.734375-11.730469-5.863281c-.167969 11.855468-.863281 23.6875-2.238281 35.226562 1.550781 12.917969 2.390624 26.253906 2.390624 39.902344 0 3.742188-.0625 7.457031-.191406 11.152344l11.769532-5.878906c2.71875-1.363282 4.414062-4.105469 4.414062-7.160157v-60.21875c.007812-3.054687-1.695312-5.796875-4.414062-7.160156zm0 0"/><path d="m104.007812 12.703125c-5.558593 3.65625-10.902343 8.058594-16 13.128906v59.175781c5.144532-4.085937 10.496094-7.601562 16-10.550781zm0 0"/><path d="m72.007812 45.089844c-21.222656 30.613281-35.726562 74.445312-39.175781 124.039062 9.6875-27.535156 23.113281-51.167968 39.175781-68.992187zm0 0"/><path d="m16.152344 196.871094-11.726563 5.863281c-2.730469 1.363281-4.425781 4.105469-4.425781 7.160156v60.21875c0 3.054688 1.695312 5.796875 4.425781 7.160157l11.765625 5.878906c-.121094-3.695313-.191406-7.410156-.191406-11.152344 0-13.648438.839844-26.984375 2.390625-39.902344-1.375-11.539062-2.070313-23.363281-2.238281-35.226562zm0 0"/><path d="m78.121094 288-14.875-7.433594 6.179687 15.433594h25.597657l21.320312-5.328125-.457031-2.671875zm0 0"/><path d="m172.121094 288-.457032 2.671875 21.328126 5.328125h25.601562l6.175781-15.433594-14.882812 7.433594zm0 0"/><path d="m174.785156 272h31.335938l20.375-10.191406-5.800782-5.808594h-26.269531l-19.105469 12.734375zm0 0"/><path d="m168.007812 67.71875v-63.230469c-7.734374-2.914062-15.761718-4.488281-24-4.488281-8.238281 0-16.265624 1.574219-24 4.488281v63.230469c7.777344-2.40625 15.792969-3.71875 24-3.71875 8.207032 0 16.222657 1.3125 24 3.71875zm0 0"/><path d="m144.007812 136c-53.359374 0-100.023437 63.070312-111.65625 150.3125 4.28125 99.199219 52.710938 177.6875 111.65625 177.6875 58.945313 0 107.367188-78.488281 111.65625-177.6875-11.632812-87.234375-58.296874-150.3125-111.65625-150.3125zm0 11.199219 42.238282 52.808593-42.238282 52.808594-42.238281-52.808594zm-56 204.800781h-16v-16h16zm88.96875 74.34375c-8.6875 8.679688-20.695312 13.65625-32.96875 13.65625-12.273437 0-24.289062-4.976562-32.96875-13.65625l-17.328124-17.328125 14.640624-21.945313c4.609376-6.925781 12.34375-11.070312 20.671876-11.070312 5.488281 0 10.695312 1.761719 14.984374 5.015625 4.28125-3.253906 9.503907-5.015625 14.984376-5.015625 8.328124 0 16.0625 4.144531 20.671874 11.078125l14.640626 21.9375zm39.03125-74.34375h-16v-16h16zm33.382813-89.929688-19.964844 49.929688-39.355469-.238281-21.039062-5.257813-.855469 5.167969 8.960938 35.855469-33.128907 22.089844-33.128906-22.089844 8.960938-35.855469-.855469-5.167969-22.976563 5.496094h-37.414062l-19.976562-49.929688 22.078124-22.070312h37.738282l28.894531 19.265625 8.839844 53.0625-7.039063 28.144531 14.871094 9.910156 14.871094-9.910156-7.039063-28.144531 8.839844-53.0625 28.886719-19.265625h37.738281zm0 0"/><path d="m113.230469 272-.542969-3.265625-19.101562-12.734375h-26.265626l-5.808593 5.808594 20.375 10.191406zm0 0"/><path d="m200.007812 25.832031c-5.097656-5.0625-10.441406-9.464843-16-13.128906v61.753906c5.503907 2.949219 10.855469 6.464844 16 10.550781zm0 0"/><path d="m144.007812 120c42.28125 0 80.671876 32.59375 104.695313 83.902344-16.0625-72.34375-56.925781-123.902344-104.695313-123.902344-47.769531 0-88.632812 51.558594-104.695312 123.902344 24.023438-51.300782 62.40625-83.902344 104.695312-83.902344zm0 0"/></svg>