<svg width="1920" height="964" viewBox="0 0 1920 964" fill="none" xmlns="http://www.w3.org/2000/svg">
<path d="M1920.16 497V961.964H1553.84C1554.94 704.944 1718.52 497 1920.16 497Z" fill="#1A1A18"/>
<path d="M1700.9 556V787.154H1517.84C1518.88 659.224 1600.41 556 1700.9 556Z" fill="#0C916A"/>
<path d="M-0.159363 29C204.017 29 369.535 240.25 369.535 500.838V964H-0.159363V29Z" fill="#F59300"/>
<path d="M1366.77 137.5C1366.77 213.439 1305.45 275 1229.81 275C1154.16 275 1092.84 213.439 1092.84 137.5C1092.84 61.5613 1154.16 5.37602e-06 1229.81 5.37602e-06C1305.45 5.37602e-06 1366.77 61.5613 1366.77 137.5Z" fill="#EE3A39"/>
</svg>
