<svg width="1951" height="1356" viewBox="0 0 1951 1356" fill="none" xmlns="http://www.w3.org/2000/svg">
<path d="M0 1356H1951V5.34058e-05H0V1356Z" fill="#F9F8F3"/>
<path d="M326.504 169.82H651.054V1.44285H326.504V169.82Z" fill="#3E9DD5"/>
<path d="M1788.28 1018.57H1626.37V678.537H1788.28V1018.57Z" fill="#3E9DD5"/>
<path d="M1626.37 1187.03H1302.08V1017.53H1626.37V1187.03Z" fill="#FFBC1D"/>
<path d="M1626.37 678.298H1301.66V339.776H1626.37V678.298Z" fill="#FCB7BA"/>
<path d="M0 1019.23H650.664V679.294H0V1019.23Z" fill="#FCB7BA"/>
<path d="M975.958 339.453H1301.57V678.534H975.958V339.453Z" fill="#EE3A39"/>
<path d="M650.664 679.296H325.7V339.54H650.664V679.296Z" fill="#FFBC1D"/>
<path d="M815.658 508.725H976.663V339.534H815.658V508.725Z" fill="#3E9DD5"/>
<path d="M975.958 339.084H1138.11V170.037H975.958V339.084Z" fill="#3E9DD5"/>
<path d="M1302.52 678.328H977.149V1019.14H1302.52V678.328Z" fill="#1A1A18"/>
<mask id="mask0_2_35" style="mask-type:luminance" maskUnits="userSpaceOnUse" x="0" y="0" width="1951" height="1356">
<path d="M0 -2.27763e-05H1951V1356H0V-2.27763e-05Z" fill="white"/>
</mask>
<g mask="url(#mask0_2_35)">
<path d="M1465.48 678.051V1017.81C1375.47 1017.81 1302.53 941.739 1302.53 847.931C1302.53 754.096 1375.47 678.051 1465.48 678.051Z" fill="#1A1A18"/>
<path d="M975.671 1.0262H1301.57C1301.57 94.8614 1228.6 170.906 1138.62 170.906C1048.61 170.906 975.671 94.8614 975.671 1.0262Z" fill="#FFBC1D"/>
<path d="M1049.78 1.02613H1227.46C1227.46 52.188 1187.68 93.6464 1138.62 93.6464C1089.54 93.6464 1049.78 52.188 1049.78 1.02613Z" fill="#EE3A39"/>
<path d="M975.665 848.697V678.817H1139.51C1139.02 772.723 1065.86 848.697 975.665 848.697Z" fill="#FFBC1D"/>
<path d="M975.709 763.272V678.817H1057.59C1057.13 725.559 1020.66 763.272 975.709 763.272Z" fill="#3E9DD5"/>
<path d="M811.289 1016.7H814.203L812.746 1018.22L811.289 1016.7Z" fill="#FCB7BA"/>
<path d="M1301.57 676.527V339.776H1626.37C1625.39 525.925 1480.36 676.527 1301.57 676.527Z" fill="#3E9DD5"/>
<path d="M1301.66 507.19V339.776H1463.97C1463.05 432.431 1390.76 507.19 1301.66 507.19Z" fill="#FFBC1D"/>
<path d="M977.15 849.177H651.229L814.203 679.294L977.15 849.177Z" fill="#FCB7BA"/>
<path d="M885.726 849.177H742.653L814.197 774.605L885.726 849.177Z" fill="#1A1A18"/>
<path d="M488.285 679.295L651.24 509.41L814.193 679.295L651.24 849.183L488.285 679.295Z" fill="#3E9DD5"/>
<path d="M651.229 849.177L650.664 679.294H814.202L651.229 849.177Z" fill="#EE3A39"/>
<path d="M651.258 509.416L650.665 679.296H488.285L651.258 509.416Z" fill="#EE3A39"/>
<path d="M815.448 170.49H975.185V1.4427H815.448V170.49Z" fill="#3E9DD5"/>
<path d="M815.447 1.44337L975.184 170.49L975.026 1.89628L815.447 1.44337Z" fill="#1A1A18"/>
<path d="M651.229 509.036L488.281 678.916L325.333 509.036L325.776 508.575H650.656V508.44L651.229 509.036Z" fill="#FCB7BA"/>
<path d="M650.657 508.439V508.575H325.777L488.282 339.156L650.657 508.439Z" fill="#F9F8F3"/>
<path d="M416.748 509.036L488.285 434.456L559.821 509.036L488.285 583.616L416.748 509.036Z" fill="#1A1A18"/>
<path d="M814.202 1189.02C904.182 1189.02 977.149 1112.94 977.149 1019.14H651.254C651.254 1112.94 724.196 1189.02 814.202 1189.02Z" fill="#FFBC1D"/>
<path d="M977.149 849.181H651.254V1019.14H977.149V849.181Z" fill="#3E9DD5"/>
<path d="M813.839 1113.6C763.555 1113.6 722.792 1071.1 722.792 1018.68C722.792 966.259 763.555 923.762 813.839 923.762C864.123 923.762 904.885 966.259 904.885 1018.68C904.885 1071.1 864.123 1113.6 813.839 1113.6Z" fill="#EE3A39"/>
<path d="M1302.53 1019.14C1212.68 1019.14 1139.84 943.201 1139.84 849.532V678.811H1302.53V1019.14Z" fill="#FCB7BA"/>
<path d="M650.664 1184.52H-0.535889V1019.23H650.664V1184.52Z" fill="#EE3A39"/>
<path d="M650.385 1018.97V1019.24H0.281006L325.463 680.22L650.385 1018.97Z" fill="#F9F8F3"/>
<path d="M167.207 1019.24L325.334 854.384L483.461 1019.24L325.334 1184.09L167.207 1019.24Z" fill="#1A1A18"/>
<path d="M1597.77 764.236C1597.77 793.873 1574.73 817.898 1546.3 817.898C1517.87 817.898 1494.83 793.873 1494.83 764.236C1494.83 734.596 1517.87 710.573 1546.3 710.573C1574.73 710.573 1597.77 734.596 1597.77 764.236Z" fill="#FCB7BA"/>
<path d="M1302.81 1186.66H976.887L1139.86 1356.54L1302.81 1186.66Z" fill="#FCB7BA"/>
<path d="M1051.01 1186.66H1228.69C1228.69 1237.82 1188.91 1279.28 1139.85 1279.28C1090.77 1279.28 1051.01 1237.82 1051.01 1186.66Z" fill="#1A1A18"/>
<path d="M1302.63 1018.91H977.068V1186.66H1302.63V1018.91Z" fill="#EE3A39"/>
<path d="M1109.26 1104.08C1109.26 1133.71 1086.21 1157.74 1057.79 1157.74C1029.36 1157.74 1006.31 1133.71 1006.31 1104.08C1006.31 1074.44 1029.36 1050.42 1057.79 1050.42C1086.21 1050.42 1109.26 1074.44 1109.26 1104.08Z" fill="#F9F8F3"/>
<path d="M1272.03 1104.08C1272.03 1133.71 1248.98 1157.74 1220.55 1157.74C1192.13 1157.74 1169.08 1133.71 1169.08 1104.08C1169.08 1074.44 1192.13 1050.42 1220.55 1050.42C1248.98 1050.42 1272.03 1074.44 1272.03 1104.08Z" fill="#F9F8F3"/>
<path d="M815.659 0.53692H650.664V508.584H815.659V0.53692Z" fill="#EE3A39"/>
<path d="M784.425 85.9655C784.425 115.602 761.38 139.628 732.953 139.628C704.525 139.628 681.48 115.602 681.48 85.9655C681.48 56.3287 704.525 32.3031 732.953 32.3031C761.38 32.3031 784.425 56.3287 784.425 85.9655Z" fill="#FFBC1D"/>
<path d="M784.425 254.561C784.425 284.198 761.38 308.223 732.953 308.223C704.525 308.223 681.48 284.198 681.48 254.561C681.48 224.924 704.525 200.899 732.953 200.899C761.38 200.899 784.425 224.924 784.425 254.561Z" fill="#FFBC1D"/>
<path d="M784.425 423.157C784.425 452.794 761.38 476.819 732.953 476.819C704.525 476.819 681.48 452.794 681.48 423.157C681.48 393.52 704.525 369.495 732.953 369.495C761.38 369.495 784.425 393.52 784.425 423.157Z" fill="#FFBC1D"/>
<path d="M-0.536011 1356.53H486.78V1184.52H-0.536011V1356.53Z" fill="#3E9DD5"/>
<path d="M81.4073 1217.76C109.835 1217.76 132.88 1241.79 132.88 1271.42C132.88 1301.06 109.835 1325.09 81.4073 1325.09C52.9799 1325.09 29.9347 1301.06 29.9347 1271.42C29.9347 1241.79 52.9799 1217.76 81.4073 1217.76Z" fill="#FCB7BA"/>
<path d="M243.122 1217.76C271.549 1217.76 294.594 1241.79 294.594 1271.42C294.594 1301.06 271.549 1325.09 243.122 1325.09C214.694 1325.09 191.649 1301.06 191.649 1271.42C191.649 1241.79 214.694 1217.76 243.122 1217.76Z" fill="#FCB7BA"/>
<path d="M404.838 1217.76C433.265 1217.76 456.311 1241.79 456.311 1271.42C456.311 1301.06 433.265 1325.09 404.838 1325.09C376.411 1325.09 353.365 1301.06 353.365 1271.42C353.365 1241.79 376.411 1217.76 404.838 1217.76Z" fill="#FCB7BA"/>
<path d="M1625.46 339.775L1788.41 169.89L1951.37 339.775L1788.41 509.66L1625.46 339.775Z" fill="#FCB7BA"/>
<path d="M1788.4 509.655L1788.95 339.775H1951.37L1788.4 509.655Z" fill="#EE3A39"/>
<path d="M1788.43 169.896L1788.95 339.776H1625.46L1788.43 169.896Z" fill="#EE3A39"/>
<path d="M155.783 1184.66L-0.533936 1019.24L-0.377852 1184.22L155.783 1184.66Z" fill="#FFBC1D"/>
<path d="M486.78 1356.53H650.609V1184.09H486.78V1356.53Z" fill="#EE3A39"/>
<path d="M487.479 1184.09L650.664 1356.54L650.502 1184.55L487.479 1184.09Z" fill="#FFBC1D"/>
<path d="M975.665 508.495L1138.62 338.609L1301.57 508.495L1138.62 678.382L975.665 508.495Z" fill="#FCB7BA"/>
<path d="M976.967 339.475C976.967 339.475 980.794 420.724 936.368 466.571C891.94 512.42 815.986 508.365 815.986 508.365C815.986 508.365 812.058 429.98 856.484 384.134C900.912 338.287 976.967 339.475 976.967 339.475Z" fill="#FFBC1D"/>
<path d="M815.979 170.493C815.979 170.493 812.152 251.742 856.578 297.588C901.006 343.437 976.96 339.383 976.96 339.383C976.96 339.383 980.888 260.998 936.462 215.152C892.034 169.305 815.979 170.493 815.979 170.493Z" fill="#EE3A39"/>
<path d="M977.132 339.474C977.132 339.474 973.306 420.723 1017.73 466.569C1062.16 512.418 1138.11 508.364 1138.11 508.364C1138.11 508.364 1142.04 429.979 1097.62 384.133C1053.19 338.286 977.132 339.474 977.132 339.474Z" fill="#FFBC1D"/>
<path d="M1138.12 170.492C1138.12 170.492 1141.95 251.741 1097.52 297.587C1053.09 343.436 977.138 339.382 977.138 339.382C977.138 339.382 973.21 260.997 1017.64 215.15C1062.06 169.304 1138.12 170.492 1138.12 170.492Z" fill="#EE3A39"/>
<path d="M1301.57 508.496L1138.53 507.574L1138.62 678.381L1301.57 508.496Z" fill="#1A1A18"/>
<path d="M650.239 508.726L976.662 849.039V508.726H650.239Z" fill="#F9F8F3"/>
<path d="M947.635 594.356C947.635 623.992 924.59 648.018 896.162 648.018C867.735 648.018 844.69 623.992 844.69 594.356C844.69 564.719 867.735 540.693 896.162 540.693C924.59 540.693 947.635 564.719 947.635 594.356Z" fill="#1A1A18"/>
<path d="M1463.7 1187.55C1463.7 1187.55 1467.53 1268.8 1423.1 1314.65C1378.68 1360.5 1302.72 1356.44 1302.72 1356.44C1302.72 1356.44 1298.79 1278.06 1343.22 1232.21C1387.65 1186.37 1463.7 1187.55 1463.7 1187.55Z" fill="#3E9DD5"/>
<path d="M1302.71 1018.57C1302.71 1018.57 1298.89 1099.82 1343.31 1145.67C1387.74 1191.52 1463.7 1187.46 1463.7 1187.46C1463.7 1187.46 1467.63 1109.08 1423.2 1063.23C1378.77 1017.39 1302.71 1018.57 1302.71 1018.57Z" fill="#1A1A18"/>
<path d="M1463.87 1187.55C1463.87 1187.55 1460.04 1268.8 1504.47 1314.65C1548.89 1360.5 1624.85 1356.44 1624.85 1356.44C1624.85 1356.44 1628.78 1278.06 1584.35 1232.21C1539.92 1186.37 1463.87 1187.55 1463.87 1187.55Z" fill="#3E9DD5"/>
<path d="M1624.85 1018.57C1624.85 1018.57 1628.68 1099.82 1584.26 1145.67C1539.83 1191.51 1463.87 1187.46 1463.87 1187.46C1463.87 1187.46 1459.95 1109.08 1504.37 1063.23C1548.8 1017.38 1624.85 1018.57 1624.85 1018.57Z" fill="#1A1A18"/>
<path d="M1626.59 849.843H1465.47V1017.81H1626.59V849.843Z" fill="#3E9DD5"/>
<path d="M1465.48 849.844H1626.59V1017.81L1465.48 849.844Z" fill="#FCB7BA"/>
<path d="M1950.46 1187.59H1788.42V1356.53H1950.46V1187.59Z" fill="#FFBC1D"/>
<path d="M1788.42 1187.59H1950.46V1356.54L1788.42 1187.59Z" fill="#EE3A39"/>
<path d="M1626.37 1356.53H1788.42V1187.59H1626.37V1356.53Z" fill="#1A1A18"/>
<path d="M1626.37 1356.54V1187.59H1788.42L1626.37 1356.54Z" fill="#FCB7BA"/>
<path d="M1950.46 679.806H1788.42V1187.85H1950.46V679.806Z" fill="#FCB7BA"/>
<path d="M1920.91 765.231C1920.91 794.871 1897.87 818.894 1869.44 818.894C1841.01 818.894 1817.97 794.871 1817.97 765.231C1817.97 735.595 1841.01 711.569 1869.44 711.569C1897.87 711.569 1920.91 735.595 1920.91 765.231Z" fill="#1A1A18"/>
<path d="M1920.91 933.828C1920.91 963.465 1897.87 987.488 1869.44 987.488C1841.01 987.488 1817.97 963.465 1817.97 933.828C1817.97 904.189 1841.01 880.166 1869.44 880.166C1897.87 880.166 1920.91 904.189 1920.91 933.828Z" fill="#1A1A18"/>
<path d="M1920.91 1102.42C1920.91 1132.06 1897.87 1156.09 1869.44 1156.09C1841.01 1156.09 1817.97 1132.06 1817.97 1102.42C1817.97 1072.79 1841.01 1048.76 1869.44 1048.76C1897.87 1048.76 1920.91 1072.79 1920.91 1102.42Z" fill="#1A1A18"/>
<path d="M1788.28 847.37C1698.43 847.37 1625.59 923.306 1625.59 1016.98V1187.7H1788.28V847.37Z" fill="#EE3A39"/>
<path d="M1625.46 339.775L1788.4 509.654L1788.42 679.805L1626.37 678.297L1625.46 339.775Z" fill="#FFBC1D"/>
<path d="M1788.36 680.744C1788.36 680.744 1792.19 761.993 1747.77 807.839C1703.34 853.688 1627.38 849.631 1627.38 849.631C1627.38 849.631 1623.45 771.246 1667.88 725.4C1712.31 679.553 1788.36 680.744 1788.36 680.744Z" fill="#EE3A39"/>
<path d="M1950.38 511.078C1950.38 511.078 1954.21 592.327 1909.78 638.176C1865.36 684.023 1789.4 679.968 1789.4 679.968C1789.4 679.968 1785.47 601.583 1829.9 555.737C1874.33 509.89 1950.38 511.078 1950.38 511.078Z" fill="#EE3A39"/>
<path d="M-0.535889 339.537H325.7V0.537001H-0.535889V339.537Z" fill="#FFBC1D"/>
<path d="M325.701 170.9V339.48H163.108C163.597 246.293 236.2 170.9 325.701 170.9Z" fill="#FCB7BA"/>
<path d="M325.658 255.713V339.522H244.406C244.866 293.139 281.053 255.713 325.658 255.713Z" fill="#3E9DD5"/>
<path d="M-0.534973 0.53639C90.0903 0.53639 163.557 77.1287 163.557 171.609V339.536H-0.534973V0.53639Z" fill="#1A1A18"/>
<path d="M295.876 85.9655C295.876 115.602 272.831 139.628 244.403 139.628C215.976 139.628 192.931 115.602 192.931 85.9655C192.931 56.3287 215.976 32.3031 244.403 32.3031C272.831 32.3031 295.876 56.3287 295.876 85.9655Z" fill="#EE3A39"/>
<path d="M651.626 170.416L488.679 340.296L325.731 170.416L326.173 169.955H651.054V169.82L651.626 170.416Z" fill="#1A1A18"/>
<path d="M651.054 169.819V169.955H326.173L488.679 0.536071L651.054 169.819Z" fill="#FCB7BA"/>
<path d="M417.146 170.416L488.682 95.8363L560.219 170.416L488.682 244.996L417.146 170.416Z" fill="#FFBC1D"/>
<path d="M1628 339.775L1301.57 -0.53535V339.775H1628Z" fill="#FCB7BA"/>
<path d="M1330.6 254.145C1330.6 224.508 1353.64 200.483 1382.07 200.483C1410.5 200.483 1433.55 224.508 1433.55 254.145C1433.55 283.782 1410.5 307.807 1382.07 307.807C1353.64 307.807 1330.6 283.782 1330.6 254.145Z" fill="#1A1A18"/>
<path d="M1792.73 0.536375H1458.18L1625.48 174.904L1792.73 0.536375Z" fill="#EE3A39"/>
<path d="M1625.48 174.905L1626.37 339.773L1951.54 0.537451H1792.73L1625.48 174.905Z" fill="#3E9DD5"/>
<path d="M1951.54 0.537573L1788.41 169.888L1951.37 339.773L1951.54 0.537573Z" fill="#1A1A18"/>
<path d="M782.833 1272.04C782.833 1301.68 759.788 1325.71 731.361 1325.71C702.933 1325.71 679.888 1301.68 679.888 1272.04C679.888 1242.41 702.933 1218.38 731.361 1218.38C759.788 1218.38 782.833 1242.41 782.833 1272.04Z" fill="#3E9DD5"/>
<path d="M945.602 1272.04C945.602 1301.68 922.557 1325.71 894.13 1325.71C865.702 1325.71 842.657 1301.68 842.657 1272.04C842.657 1242.41 865.702 1218.38 894.13 1218.38C922.557 1218.38 945.602 1242.41 945.602 1272.04Z" fill="#3E9DD5"/>
<path d="M976.888 1186.66L977.151 1356.54L1139.86 1356.54L976.888 1186.66Z" fill="#FFBC1D"/>
<path d="M1301.57 264.505V413.665L1230.04 339.074L1301.57 264.505Z" fill="#3E9DD5"/>
<path d="M1138.76 339.453V170.511H1300.81L1138.76 339.453Z" fill="#FCB7BA"/>
<path d="M326.504 509.416C326.504 603.224 253.537 679.296 163.557 679.296V339.537C253.537 339.537 326.504 415.581 326.504 509.416Z" fill="#1A1A18"/>
<path d="M163.559 679.296H-0.533447V339.537H163.559V679.296Z" fill="#EE3A39"/>
<path d="M254.165 509.036C254.165 456.613 213.402 414.116 163.118 414.116C112.835 414.116 72.0718 456.613 72.0718 509.036C72.0718 561.459 112.835 603.956 163.118 603.956C213.402 603.956 254.165 561.459 254.165 509.036Z" fill="#FCB7BA"/>
</g>
</svg>
