<svg width="200" height="200" viewBox="0 0 200 200" fill="none" xmlns="http://www.w3.org/2000/svg">
<path d="M200 100.509V199.967H100.322C100.621 144.989 145.131 100.509 200 100.509Z" fill="#1A1A18"/>
<path d="M199.974 150.547V199.991H150.161C150.444 172.627 172.628 150.547 199.974 150.547Z" fill="#0C916A"/>
<path d="M0 -2.98023e-06C55.558 -2.98023e-06 100.597 45.1872 100.597 100.928V200H0V-2.98023e-06Z" fill="#F59300"/>
<path d="M181.716 50.4006C181.716 67.8854 167.588 82.0598 150.16 82.0598C132.733 82.0598 118.605 67.8854 118.605 50.4006C118.605 32.9158 132.733 18.7414 150.16 18.7414C167.588 18.7414 181.716 32.9158 181.716 50.4006Z" fill="#E15024"/>
</svg>
